<svg xmlns="http://www.w3.org/2000/svg" viewBox="0 0 256 256" fill="#000">
  <path d="M64.1 147.8a4 4 0 0 1-4 4.2H16a8 8 0 0 1-7.8-6.2 8.3 8.3 0 0 1 1.6-6.9A67.8 67.8 0 0 1 37 117.5a40 40 0 1 1 66.5-35.8 4 4 0 0 1-2.3 4.2A64 64 0 0 0 64 144l.1 3.8Zm182-9a67.8 67.8 0 0 0-27.1-21.3 40 40 0 1 0-66.5-35.8 4 4 0 0 0 2.3 4.2A64 64 0 0 1 192 144l-.1 3.8a4 4 0 0 0 4 4.2H240a8 8 0 0 0 7.8-6.2 8.3 8.3 0 0 0-1.6-7Zm-89 43.3a48 48 0 1 0-58.3 0A72.1 72.1 0 0 0 65 212a8 8 0 0 0 6.9 12h112a8 8 0 0 0 7-12 72.2 72.2 0 0 0-33.8-30Z" />
</svg>
